<?xml version="1.0" encoding="UTF-8"?>
<svg xmlns="http://www.w3.org/2000/svg" viewBox="0 0 1455.03 1328.5">
  <defs>
    <style>
      .cls-1, .cls-2, .cls-3, .cls-4, .cls-5, .cls-6, .cls-7, .cls-8 {
        stroke: #231f20;
        stroke-miterlimit: 10;
      }

      .cls-1, .cls-6 {
        stroke-width: 17px;
      }

      .cls-1, .cls-9, .cls-8 {
        fill: #ef4957;
      }

      .cls-2 {
        stroke-width: 11px;
      }

      .cls-2, .cls-3, .cls-4, .cls-5, .cls-6, .cls-7 {
        fill: none;
      }

      .cls-2, .cls-3, .cls-4, .cls-6, .cls-8 {
        stroke-linecap: round;
      }

      .cls-3, .cls-7 {
        stroke-width: 15px;
      }

      .cls-4, .cls-8 {
        stroke-width: 4px;
      }

      .cls-5 {
        stroke-width: 10px;
      }

      .cls-10 {
        fill: #fff200;
      }

      .cls-10, .cls-9, .cls-11 {
        stroke-width: 0px;
      }

      .cls-11 {
        fill: #231f20;
      }
    </style>
  </defs>
  <g id="red_colour" data-name="red colour">
    <path class="cls-10" d="M1047.66,1202.22c-68.21,1.72-136.43,2.33-204.66,1.87-2.64-1.97-6.13-2.94-10.26-2.04-3.66.8-7.31,1.59-10.97,2.39-2.19.48-3.91,1.43-5.28,2.63-1.35-.56-2.84-.94-4.51-1.03-9.22-.49-18.34-.4-27.43.14-.35-.04-.67-.11-1.03-.12-19.23-.61-38.45-1.23-57.68-1.84-1.66-.88-3.64-1.41-5.98-1.41l-329.77-.77c-2.74,0-5.38.99-7.54,2.61-9.61-10.38-29.17,1.32-20.41,13.77,5.52,7.85,9.95,15.88,12.7,25.05,2.49,8.29,2.49,16.83,4.56,25.13,1.72,6.92,5.49,12.63,9.05,18.74,3.12,5.35,5.06,10.47,6,15.92-3.9,4.9-3.55,12.82,1.09,17.13,2.83,8.11,14.91,9.09,20.98,3.01,127.83-.15,255.65-.31,383.48-.46,9.46,1.24,18.92,2.11,28.39,2.69,1.73.99,3.83,1.57,6.35,1.54,54.65-.63,110.26,1.34,164.81-3.81,3.55.07,7.09.16,10.64.29,3.76,2.05,8.58,2.59,12.73.64.34.02.69.04,1.03.06,5.1.33,11.06-4,12.07-8.96,1.17-5.76,2.34-11.53,3.51-17.29,8.87-23.96,9.89-50.72,22.16-73.37,3.87-2.31,5.81-6.6,5.81-10.84,2.06-9.77-11.17-17.38-19.84-11.67ZM427.34,1282.89l2.27,4.07c-1.38-.32-1.48-1.39-2.27-4.07Z"/>
  </g>
  <g id="yellow_colouring" data-name="yellow colouring">
    <path class="cls-10" d="M1291.8,633.88c-1.89,0-3.54.35-4.99.94-10.96-3.45-21.92-6.91-32.88-10.36-11.48-3.62-24.54-6.15-33.29-14.76-1.41-1.39-2.92-2.34-4.46-2.91-4.19-5.31-12.37-7.79-18.66-1.7-4.23,4.09-8.51,8.12-12.85,12.08-8.13-1.76-14.87,5.32-14.53,12.85-6.06,5.19-12.23,10.25-18.48,15.2-2.85-.43-5.91,0-8.17,1.53-2.39,1.63-4.04,3.23-5.21,5.09-21.9,15.98-43.8,31.96-65.69,47.94-10.06,4.36-18.18,11.57-26.36,19.23-38.08,27.79-76.16,55.58-114.25,83.37-2.02.99-4.05,1.98-6.07,2.97-2.48,1.22-4.1,3.05-5.06,5.15-8.26,6.02-16.51,12.05-24.77,18.07-3.56,1.6-7.17,3.1-10.84,4.5-1,.38-1.92.85-2.79,1.36-3.6-6.57-7.08-13.21-10.5-19.89-6.3-17.83-11.29-36.19-16.79-54.14-9.18-29.98-18.37-59.96-27.55-89.95-18.37-59.96-36.73-119.93-55.1-179.89-2.39-7.81-10.08-9.82-16.25-7.82-5.96-3.35-14.08-2.86-20.92-2.87-16.04-.02-32.09-.04-48.13-.06-10.89-.01-14.41,11.12-10.58,18.35-12.57,5.7-13.92,22.99-17.44,35.36-5.56,19.57-11.11,39.14-16.67,58.7-.81,2.86-.61,5.41.28,7.57-.57.85-1.04,1.8-1.37,2.85-25.12,79.07-50.23,158.14-75.35,237.2-.62-.5-1.31-.98-2.09-1.41-15.55-8.52-29.47-19.96-43.71-30.38-15.57-11.39-31.12-22.81-46.66-34.25-31.03-22.84-61.99-45.77-92.9-68.77-.98-1.67-2.49-3.18-4.63-4.38-20.88-11.7-38.65-27.2-56.77-42.51-8.17-6.9-16.43-13.68-25.01-20.08-10.68-7.96-22.7-14.06-33.27-22.08-1.21-.92-2.47-1.58-3.74-2.03-2.84-5.89-9.95-10.02-17.49-5.95-10.32,5.57-20.84,10.77-31.69,15.31-10.14,4.24-23.38,11.54-34.48,7.97-4.24-1.36-7.81-.54-10.43,1.46-8.07-.51-16.31,5.39-12.55,14.6,20.66,50.64,40.58,101.56,59.85,152.71.32,3.74,1.54,7.47,3.77,10.84.21.31.44.6.65.9,33.11,88.47,64.14,177.68,93.05,267.55.8,2.48,2.07,4.37,3.6,5.77,1.73,8.65,5.48,16.31,9.33,24.58,2.29,4.92,4.01,9.26,3.34,14.67-.69,5.5-2.64,10.04-.27,15.56,5.26,12.23,21.49,10,32.47,9.8,15.08-.27,30.04-1.73,44.96-3.81,1.3-.01,2.6-.03,3.9-.04,1.58.75,3.43,1.19,5.58,1.19h46.65c20.45.95,40.89,2.33,61.32,3.77,4.39.31,7.56-1.29,9.55-3.8,51.2,1.15,102.4,2.3,153.6,3.45,1.38.03,2.64-.13,3.79-.44,12.9,3.33,25.83,2.27,38.85-3,6.78.74,13.53,1.6,20.25,2.29,18.18,1.87,35.69,1.19,53.63-.8,1.7.81,3.77,1.19,6.22.97,5.67-.52,11.35-.89,17.03-1.19,1.82,1.05,4.15,1.57,7.01,1.27,10.39-1.12,20.78-1.61,31.14-1.42,10.69.49,21.35,1.43,31.98,2.88,3.13.43,5.9-.17,8.23-1.4,1.24.4,2.59.66,4.1.65,59.11-.44,118.22-.88,177.33-1.32,10.7-.08,14.3-10.88,10.77-18.08,21.88-29.98,32.4-68.56,45.77-102.33l41.26-104.24c4.11-7.5,8.01-15.13,11.71-22.86,11.92-8.29,17.32-22.14,20.9-36.77,3.82-15.61,8.47-30.97,13.46-46.23,8.68-11.71,14.07-25.39,18.45-39.4,16.25-33.27,31.15-67.14,44.74-101.53,2.34-3.39,4.32-7.26,5.89-11.72.75-2.11.88-4.04.58-5.78,2.27-1.04,4.05-2.86,5.23-5.04,6.74-6.64,3.91-21.14-8.52-21.14ZM777.78,593.05c2.12,6.91,4.24,13.83,6.35,20.74-.56-.55-1.15-1.05-1.78-1.47-1.65-6.29-3.23-12.61-4.78-18.93.06-.12.14-.23.2-.35ZM623.81,790.84c-.48.54-.93,1.11-1.34,1.77-.55.89-1.08,1.79-1.62,2.68,1.66-6.08,3.31-12.19,4.97-18.31-.69,4.62-1.37,9.24-2.02,13.86ZM529.57,845.44c-6.87-2.86-13.32-8.37-19.3-14.35,6.41,4.75,12.79,9.65,19.3,14.35ZM343.66,748.66c-6.16,3.34-12.52,6.18-19.05,8.6,6.07-2.98,12.04-6.14,17.94-9.45.37.28.74.56,1.11.85ZM373.17,758.1c.74-.95,1.33-1.95,1.77-2.99.97.69,1.94,1.38,2.91,2.07-1.56.3-3.12.59-4.68.92ZM208.67,726.09c1.38-.09,2.76-.14,4.14-.25-.89.38-1.78.78-2.67,1.16-.34.14-.61.32-.92.48-.18-.46-.36-.93-.54-1.39ZM821.11,1124.03c-2.7.13-5.39.28-8.09.46-1.83-1.07-4.18-1.58-7.06-1.21-22.25,2.86-43.25,3.66-65.6,1.2-21.7-2.39-42.44-4.63-64.19-1.35-2.22.34-4.02,1.35-5.44,2.74-53.7-1.21-107.39-2.41-161.09-3.62-1.34-.03-2.53.16-3.64.45h-48.06c-24.16-1.13-48.33-1.64-72.54-.84-2.94.1-5.34,1-7.2,2.39-3.28.28-6.56.52-9.84.7-4.76.26-9.52.41-14.28.46-.58,0-2.63-.09-4.72-.08.13-.76.24-1.51.27-2.26.22-5.21-.84-10.35-2.56-15.26-3.35-9.57-10.58-18.55-11.33-28.83-.11-1.54-.47-2.93-1-4.17,3.17-7.04-1.13-15.89-7.8-17.78-25.05-77.16-51.71-153.8-79.87-229.92,18.25,1.45,38.83-3.34,52.09-7.99,32.45-11.38,60.62-32.27,94.48-39.98,3.52-.8,5.94-2.97,7.33-5.68,18.53,13,37,26.09,54.61,40.26,14.71,11.83,28.11,24.72,41.67,37.73,6.86,6.58,14.23,12.56,22.58,16.34-3.26,6.08-5.85,12.49-7.7,19.44-.6,2.27-.54,4.4.01,6.32-3.4,5.31-6.8,10.61-10.2,15.92-1.85,2.89-2.01,6.13-1.1,9.1-.79,1.87-1.07,3.75-.92,5.53-.84.14-1.68.27-2.52.41-14.06,2.4-10.53,24.13,3.33,23.96,15.2-.19,30.4-.38,45.6-.58-1.19,6.72,2.58,13.87,11.76,13.28,1.97-.13,3.94-.25,5.91-.38.77.01,1.53-.03,2.29-.15,2.86-.18,5.73-.37,8.59-.55,1.79,1.11,3.99,1.74,6.56,1.63,8.5-.36,16.99-.81,25.47-1.28.07.33.1.69.19,1-18.74,2.74-37.49,5.47-56.23,8.21-13.08,1.91-10.79,17.93-.87,22.46-.56,6.54,3.59,13.36,12.04,13.05.72-.03,1.43-.05,2.15-.07-4.34,6.41-2.86,16.13,4.74,18.33-3.63,7.22.9,18.97,11.01,18.61,30.66-1.07,61.26-2.97,91.83-5.35,34.79-.15,69.58-.77,104.35-1.91-.32,1.11-.45,2.28-.29,3.5,4.32,32.61,19.61,63.1,45.37,84.78-.05.34-.07.67-.09,1ZM996.87,1106.25c-1.32.03-2.63.05-3.95.08,1.4-.72,2.81-1.42,4.18-2.17-.13.7-.2,1.4-.23,2.09ZM1072.34,998.93c-.39-.19-.8-.36-1.21-.5.1-.33.19-.65.25-.98.59-.04,1.17-.13,1.76-.16-.27.54-.53,1.1-.8,1.65Z"/>
  </g>
  <g id="background_Circle" data-name="background Circle">
    <ellipse class="cls-8" cx="727.51" cy="242.15" rx="246.35" ry="240.15"/>
    <line class="cls-4" x1="356.29" y1="1202.38" x2="398.68" y2="1326.5"/>
    <line class="cls-4" x1="1069.09" y1="1202.38" x2="1026.71" y2="1326.5"/>
    <line class="cls-4" x1="399.79" y1="1326.5" x2="1026.71" y2="1326.5"/>
    <line class="cls-4" x1="356.29" y1="1202.38" x2="1069.09" y2="1202.38"/>
    <ellipse class="cls-8" cx="147.12" cy="495.4" rx="145.12" ry="141.47"/>
    <ellipse class="cls-8" cx="1307.91" cy="495.4" rx="145.12" ry="141.47"/>
    <line class="cls-4" x1="333.79" y1="1150.28" x2="147.12" y2="636.87"/>
    <line class="cls-4" x1="770.29" y1="478.69" x2="885.44" y2="837.47"/>
    <line class="cls-4" x1="885.44" y1="837.47" x2="1208.35" y2="598.32"/>
    <line class="cls-4" x1="1307.91" y1="636.87" x2="1086.65" y2="1152.21"/>
    <line class="cls-4" x1="678.63" y1="478.69" x2="563.48" y2="837.47"/>
    <line class="cls-4" x1="563.48" y1="837.47" x2="241.95" y2="602.48"/>
    <line class="cls-4" x1="333.79" y1="1150.28" x2="1086.65" y2="1152.21"/>
    <path class="cls-11" d="M801.96,1036.62c-53.86-19.26-111.67-26.16-168.7-20.05-13.84,1.48-17.22,19.23-3.33,23.96,26.01,8.87,53.41,11.09,80.74,12.53,1.83,3.61,5.31,6.47,10.44,6.96,25.84,2.44,51.65,2.63,77.52.56,14.22-1.14,16.8-19.14,3.33-23.96Z"/>
    <path class="cls-10" d="M899.33,1050.9c-28.31-6.52-56.84-12.06-85.52-16.62.44-6.29-3.63-13.22-12.01-13.93-7.39-.63-14.78-1.29-22.16-1.96-1.14-3.23-3.82-5.86-8.35-6.68-59.96-10.83-120.75-15.96-181.72-15.02-6.81.11-11.25,5.7-12.12,11.46-.96-.02-1.93-.04-2.89-.06,2.86-6.55.17-16-7.85-17.06-4.21-.56-8.43-1.06-12.65-1.56,6.63-1.75,13.07-4.09,19.18-7.4,0,0,.02-.01.03-.02,1.1.38,2.27.68,3.56.8,16.36,1.5,32.72,3,49.09,4.51,16.03,1.47,15.92-22.94,0-24.4-3.99-.37-7.99-.73-11.98-1.1,10.49-4.77,8.72-23.14-5.36-23.28-7.21-.07-14.4.02-21.59.19-15.45.14-30.9.27-46.35.41-8.3-.98-16.59-1.31-24.9-1.25,9.54-.19,13.62-14.21,7.5-21.3-4.07-4.72-7.51-9.76-10.35-15.15,7.82-2.55,15.63-5.1,23.45-7.65,10.98-3.58,12.8-20.8,0-23.53-1.55-.33-3.1-.61-4.66-.91-.08-2.63-.99-5.23-2.69-7.36-.29-3.91-2.4-7.64-6.29-9.65-.08-3.83-1.8-7.66-5.7-10.13-21.38-13.59-43.42-26.07-66.08-37.45-12.18-9.94-25.47-18.41-39.64-25.39-9.74-8.39-20.18-16.07-31.32-22.96-10.41-6.43-19.29,3.37-17.91,12.57-2.94-3.82-5.92-7.6-9-11.33-9.35-11.33-25.65,3.1-19.65,14.78.41.81.86,1.59,1.28,2.39-.9-.43-1.8-.87-2.71-1.29-10.43-4.89-18.87,3.07-18.33,11.43-3.38,2.44-5.34,6.45-3.94,11.51-2.6-.56-5.08-.31-7.27.52-2.73.17-5.48,1.27-7.91,3.43-2.66,2.37-4.99,4.82-7.06,7.34-7-1.23-13.27,3.48-14.29,9.82-1.31-.95-2.68-1.51-4.08-1.74-5.34-5.91-15.87-4.88-20.1,2.07-18.62,30.63,9.02,63.95,20.67,91.88,7.16,17.17,11.88,34.82,14.68,53.14,2.7,17.7,5.48,34.59,14.23,50.56,2.5,4.56,7.35,6.27,11.98,5.76.78,7.28,1.64,14.55,2.84,21.77,1.99,11.92,4.96,23.55,9.54,34.78,1.56,3.82,3.75,8.2,5.74,12.79.6,4.06,1.88,7.91,3.96,11.33,1.22,5.2,1.36,10.32-.72,14.91-3.78,8.33.57,18.14,10.81,18.36,22.63.47,45.27.95,67.9,1.42,3.3,1.4,7.18,1.48,10.48.22,3.43.07,6.85.14,10.28.22.27.86.57,1.7.95,2.5,3.88,8.19,13.35,10.96,21.6,7.6,4.6-1.87,8.64-5.19,12.18-9.38,17.14.36,34.28.72,51.42,1.08,1.97,1.79,4.81,2.8,8.54,2.39,3.83-.42,7.65-.89,11.46-1.37,1.42-.17,2.84-.34,4.25-.51.22-.03.41-.1.62-.13,15.94-2.15,31.78-4.86,47.51-8.23,62.74,5.19,125.68,7.41,188.64,6.62,18.01.39,36.02.78,54.04,1.17,9.29.2,13.08-7.15,11.78-13.86,11.4-.13,22.77-.71,34.06-1.98,16.09-1.82,16.06-22.53,0-24.4-6.21-.72-12.42-1.41-18.63-2.12-1.78-3.63-5.35-6.55-10.72-7.1-4.31-.44-8.61-.88-12.92-1.32.04-.32.05-.64.07-.96,3.5-.36,7-.77,10.5-1.24,0,0,.02,0,.02,0,0,0,0,0,0,0,1.11-.15,2.22-.27,3.33-.43,5.67-.82,8.39-4.12,8.94-8.03,12.33.06,24.66-.11,37-.52,13.67-.46,17.53-20.69,3.33-23.96ZM506.78,938.13c.69-.61,1.31-1.29,1.85-2.04.8.31,1.6.61,2.4.93,1.53.62,2.97.89,4.31.92-2.85.02-5.7.08-8.56.19Z"/>
  </g>
  <g id="Bike">
    <ellipse class="cls-6" cx="871.76" cy="284.56" rx="77.96" ry="75.99"/>
    <ellipse class="cls-1" cx="582.75" cy="283.49" rx="77.96" ry="75.99"/>
    <ellipse class="cls-9" cx="594.88" cy="278.56" rx="84.12" ry="82"/>
    <ellipse class="cls-9" cx="854.36" cy="290.57" rx="84.12" ry="82"/>
    <path class="cls-6" d="M559.54,278.56c62.29-79.02,147.11-116.29,254.47-111.81"/>
    <line class="cls-3" x1="840.02" y1="298.47" x2="811.59" y2="146.49"/>
    <path class="cls-5" d="M814.01,166.75c-57.56,36.12-93.27,89.8-110.83,158.08"/>
    <path class="cls-2" d="M595.03,152.35s104.09,167.69,108.09,172.52"/>
    <line class="cls-7" x1="811.85" y1="159.1" x2="846.2" y2="159.75"/>
    <path class="cls-11" d="M856.35,156.86c-.01-2.72-.03-5.45-.04-8.17l-13.98,3.79c.8,1.07,1.45,2.21,1.98,3.43l-.76-1.79c.58,1.41.96,2.86,1.17,4.36l-.27-1.99c.22,1.72.2,3.43-.02,5.15l.27-1.99c-.25,1.72-.7,3.39-1.36,5.01l.76-1.79c-.44,1.04-.94,2.04-1.54,2.99-.27.43-.58.84-.87,1.26,1.46-2.19.41-.54-.1,0-.35.37-.71.73-1.09,1.07-.19.17-.39.33-.58.5-.94.84,1.6-1.12.54-.43-.96.63-1.92,1.21-2.97,1.68-1.61.72-3,2.86-3.45,4.48-.49,1.8-.27,4.19.76,5.78s2.57,3.01,4.48,3.45c2.09.48,3.84.11,5.78-.76,13.6-6.07,19.18-25.92,10.22-37.99-1.01-1.35-1.99-2.39-3.59-3.07-1.49-.63-3.3-.89-4.88-.38-3.14,1.02-5.52,3.83-5.51,7.23.01,2.72.03,5.45.04,8.17.02,3.92,3.44,7.68,7.5,7.5s7.52-3.3,7.5-7.5h0Z"/>
    <path class="cls-11" d="M595.51,159.55c7.73-.4,15.45-.8,23.18-1.19,3.91-.2,7.69-3.31,7.5-7.5-.17-3.89-3.3-7.72-7.5-7.5-7.73.4-15.45.8-23.18,1.19-3.91.2-7.69,3.31-7.5,7.5.17,3.89,3.3,7.72,7.5,7.5h0Z"/>
    <path class="cls-11" d="M597.29,146.11c-9.87-2.91-19.6-6.28-29.16-10.1-1.69-.68-4.28-.12-5.78.76s-3.04,2.69-3.45,4.48c-.44,1.92-.34,4.07.76,5.78s2.57,2.68,4.48,3.45c9.56,3.82,19.29,7.19,29.16,10.1,3.76,1.11,8.34-1.34,9.23-5.24s-1.21-8.04-5.24-9.23h0Z"/>
  </g>
</svg>